<svg role="img" viewBox="0 0 24 24" xmlns="http://www.w3.org/2000/svg" id="Dapr--Streamline-Simple-Icons" height="24" width="24">
  <desc>
    Dapr Streamline Icon: https://streamlinehq.com
  </desc>
  <title>Dapr</title>
  <path d="M7.6175 7.658h10.5093a0.2456 0.2456 0 0 1 0.2461 0.2461v0.656a0.2456 0.2456 0 0 1 -0.2461 0.2462H7.6175a0.2456 0.2456 0 0 1 -0.2461 -0.2462v-0.656a0.2456 0.2456 0 0 1 0.2461 -0.2462zm2.0329 -4.476h6.533a0.132 0.132 0 0 1 0.1323 0.1324v4.5199a0.132 0.132 0 0 1 -0.1323 0.1323h-6.533a0.132 0.132 0 0 1 -0.1324 -0.1323v-4.52a0.132 0.132 0 0 1 0.1324 -0.1323zm5.8312 16.9 -1.0503 0.736 -1.0502 -0.736 0.1544 -4.2073h1.7917zm-9.6058 -4.244H4.0963v-0.5588c-0.17 0.2134 -0.3418 0.369 -0.5155 0.4666 -0.3038 0.17 -0.6492 0.255 -1.0362 0.255 -0.6258 0 -1.1828 -0.2152 -1.671 -0.6457C0.2911 14.8415 0 14.1614 0 13.315c0 -0.861 0.2984 -1.5482 0.8952 -2.0619 0.4738 -0.4088 1.0182 -0.6131 1.6331 -0.6131 0.358 0 0.6945 0.076 1.0091 0.2279 0.1809 0.0868 0.3672 0.2297 0.5589 0.4286V7.6881h1.7795Zm-1.7253 -2.5177c0 -0.3183 -0.1121 -0.5887 -0.3364 -0.8112 -0.2242 -0.2224 -0.4955 -0.3337 -0.8138 -0.3337 -0.3545 0 -0.6456 0.1339 -0.8735 0.4016 -0.1845 0.217 -0.2767 0.4648 -0.2767 0.7433 0 0.2786 0.0922 0.5264 0.2767 0.7434 0.2243 0.2677 0.5154 0.4016 0.8735 0.4016 0.322 0 0.5941 -0.1104 0.8166 -0.331 0.2224 -0.2207 0.3336 -0.492 0.3336 -0.814Zm8.3997 2.5178h-1.7796v-0.559c-0.17 0.2135 -0.3418 0.369 -0.5154 0.4667 -0.3038 0.17 -0.6492 0.255 -1.0363 0.255 -0.6257 0 -1.1827 -0.2152 -1.671 -0.6457 -0.5824 -0.5136 -0.8735 -1.1937 -0.8735 -2.0402 0 -0.861 0.2984 -1.5482 0.8952 -2.0619 0.4738 -0.4088 1.0182 -0.6131 1.633 -0.6131 0.3581 0 0.6945 0.076 1.0092 0.2279 0.1809 0.0868 0.3671 0.2297 0.5588 0.4286v-0.4938h1.7796zm-1.7253 -2.5178c0 -0.3183 -0.1121 -0.5887 -0.3364 -0.8112 -0.2242 -0.2224 -0.4955 -0.3337 -0.8138 -0.3337 -0.3545 0 -0.6457 0.1339 -0.8735 0.4016 -0.1845 0.217 -0.2767 0.4648 -0.2767 0.7433 0 0.2786 0.0922 0.5264 0.2767 0.7434 0.2242 0.2677 0.5154 0.4016 0.8735 0.4016 0.3219 0 0.594 -0.1104 0.8165 -0.331 0.2225 -0.2207 0.3337 -0.492 0.3337 -0.814zm8.6004 0.0054c0 0.861 -0.2984 1.5483 -0.8952 2.062 -0.4738 0.4087 -1.0182 0.6131 -1.633 0.6131 -0.3582 0 -0.6945 -0.076 -1.0092 -0.2279 -0.1809 -0.0868 -0.3672 -0.2297 -0.5589 -0.4286v3.0114h-1.7795v-7.553h1.7795v0.5588c0.1592 -0.2098 0.331 -0.3654 0.5155 -0.4666 0.3038 -0.17 0.6492 -0.255 1.0362 -0.255 0.6258 0 1.1828 0.2152 1.6711 0.6456 0.5823 0.5137 0.8735 1.1938 0.8735 2.0402zm-1.85 -0.0054c0 -0.2857 -0.0905 -0.5335 -0.2714 -0.7433 -0.2278 -0.2677 -0.5208 -0.4016 -0.8789 -0.4016 -0.322 0 -0.594 0.1104 -0.8165 0.331 -0.2225 0.2207 -0.3337 0.492 -0.3337 0.814 0 0.3183 0.1121 0.5887 0.3364 0.8111 0.2242 0.2225 0.4955 0.3338 0.8138 0.3338 0.358 0 0.6493 -0.1339 0.8735 -0.4016 0.1845 -0.217 0.2767 -0.4648 0.2767 -0.7434zM24 12.4467c-0.2496 -0.1193 -0.5028 -0.179 -0.7596 -0.179 -0.586 0 -0.9657 0.2387 -1.1393 0.7162 -0.0651 0.1737 -0.0977 0.407 -0.0977 0.7v2.1542h-1.7796v-5.0355h1.7796v0.8248c0.188 -0.293 0.3906 -0.5046 0.6077 -0.6348 0.293 -0.1737 0.6402 -0.2605 1.0417 -0.2605a4.51 4.51 0 0 1 0.3472 0.0163z" fill="#000000" stroke-width="1"></path>
</svg>